<?xml version="1.0" encoding="utf-8"?>
<!-- Generator: Adobe Illustrator 26.0.1, SVG Export Plug-In . SVG Version: 6.00 Build 0)  -->
<svg version="1.1" id="Layer_1" xmlns="http://www.w3.org/2000/svg" xmlns:xlink="http://www.w3.org/1999/xlink" x="0px" y="0px"
	 viewBox="0 0 500 500" style="enable-background:new 0 0 500 500;" xml:space="preserve">
<style type="text/css">
	.st0{fill:#FFFFFF;}
	.st1{fill:#80ADDC;}
	.st2{fill:#171544;}
</style>
<circle class="st0" cx="250" cy="250" r="248.5"/>
<g>
	<g>
		<path class="st1" d="M310.4,78.4c0.8-2.6,1.8-5.1,2.8-7.6c2.9-7.1,6.4-14,10.5-20.5c2.1-3.3,4.3-6.5,6.6-9.6
			c2.1-2.8,4.4-6.6,7.2-8.8c-14.8,11-26.8,26.2-34.8,43.5c-3.9,8.6-6.8,17.8-8.6,27.3c-0.9,4.7-1.5,9.5-1.8,14.3
			c-6.1-3.9-12.8-7-19.9-8.8c-11.9-3.1-24.7-2.5-36.4,1.3c-23.8,7.2-42.1,29.1-45.7,53.5c-4.1,24.4,7.1,50.4,27.1,63.9
			c19.2,14,45.9,15.3,65.5,4.3c3.7,2.7,7.8,4.9,12.1,6.3c2.4,0.8,5,1.3,7.5,1.5l7.5,0.1l-7.2-1.5c-2.3-0.7-4.6-1.6-6.7-2.7
			c-4.3-2.1-8-5.1-11.2-8.5l-1.1-1.1l-1.8,0.7c-9.8,3.9-20.3,5-30.3,3.5c-10-1.8-19.4-5.8-27-12.2c-15.3-12.5-23-33-19.2-51.9
			c3.1-18.9,17.3-35.3,35.4-41.3c11-3.7,23.1-3.5,34.1,0.1c11.9,3.8,19.9,11.5,28.9,19.6c1.3,1.1,2.5,2.2,3.8,3.4
			c-1.4-12.3-3.6-24.4-3-36.8C305,99.5,307,88.7,310.4,78.4"/>
		<path class="st2" d="M183,468.1c17.3-20.7,27.9-45.8,30.1-71.5l0.7-8.2l7.3,4.6c18,11.2,41.8,10.3,58.6-1.1
			c8.4-5.7,15.2-13.6,19.3-22.8c4.1-9.2,5.4-19.5,3.9-29.4c-2.6-20-18-37.4-37.6-43.1c-9.7-2.9-20.4-3-30.4-0.2
			c-10,2.8-19.2,8.7-26.3,16.5l-7.4,8l-0.9-10.4c-1-10.7-4.6-21.4-11-30.3c-6.4-9-15.7-16.1-26.8-19.8c11.5,1.5,22.8,7.3,31,16.3
			c8.3,8.9,13.9,20.4,16,32.6l-8.3-2.3c14.5-20.4,42.6-30.9,67.7-24.1c12.5,3.1,24.3,9.9,32.9,19.6c8.8,9.6,14.7,21.9,16.7,34.8
			c4.2,25.9-8.5,53.7-31,66.9c-11,6.8-24,10.2-36.8,9.7c-12.8-0.5-25.3-4.8-35.4-12.3l8.1-3.6C218.5,425.6,203.8,451,183,468.1"/>
	</g>
	<path class="st2" d="M496,249.9c1,93.5-56.9,184-142.3,222.8C190.3,548.4,4.4,430,4,249.9C4.3,70.2,190.6-48.5,353.7,27.3
		C439,66.1,497,156.4,496,249.9L496,249.9z M493.3,249.9c0.9-91.7-58.2-179.5-143.4-213.6C198.1-26.2,30.1,86,30.5,249.9
		c-0.4,164,167.6,276.1,319.3,213.6C435.1,429.5,494.2,341.6,493.3,249.9L493.3,249.9z"/>
</g>
</svg>
